<?xml version="1.0" encoding="UTF-8" standalone="no"?><!DOCTYPE svg PUBLIC "-//W3C//DTD SVG 1.1//EN" "http://www.w3.org/Graphics/SVG/1.1/DTD/svg11.dtd"><svg width="100%" height="100%" viewBox="0 0 192 209" version="1.1" xmlns="http://www.w3.org/2000/svg" xmlns:xlink="http://www.w3.org/1999/xlink" xml:space="preserve" xmlns:serif="http://www.serif.com/" style="fill-rule:evenodd;clip-rule:evenodd;stroke-linejoin:round;stroke-miterlimit:2;"><rect id="gggm_logo" x="0" y="0" width="189.539" height="206.457" style="fill:none;"/><g><path d="M29.861,20.105c0.28,-0.229 0.562,-0.452 0.847,-0.673l9.667,-7.662c8.535,-6.924 19.408,-11.073 31.242,-11.073c12.323,-0 24.196,4.582 33.318,12.84c-0.317,0.21 -0.631,0.423 -0.942,0.639l0.063,0.057c-0.317,0.21 -0.631,0.423 -0.942,0.64l0.063,0.057c-0.316,0.21 -0.631,0.423 -0.942,0.64l0.063,0.056c-0.316,0.21 -0.631,0.423 -0.942,0.64l0.063,0.057c-0.316,0.21 -0.631,0.423 -0.942,0.64l0.064,0.056c-0.317,0.21 -0.631,0.423 -0.943,0.64l0.064,0.057c-0.317,0.21 -0.631,0.423 -0.942,0.64l0.063,0.056c-0.317,0.21 -0.631,0.424 -0.942,0.64l0.063,0.057l-0.582,0.392l-0.314,0.289l0.017,0.015l-0.122,0.082c-3.6,3.364 -6.797,7.155 -9.511,11.29c-0.088,-0.073 -0.177,-0.145 -0.266,-0.216c-0.207,0.301 -0.411,0.606 -0.612,0.913c-0.089,-0.073 -0.178,-0.146 -0.267,-0.217c-0.207,0.302 -0.411,0.606 -0.612,0.913c-0.089,-0.073 -0.178,-0.145 -0.267,-0.216c-0.207,0.301 -0.411,0.606 -0.612,0.913c-0.089,-0.073 -0.178,-0.146 -0.267,-0.217c-0.207,0.302 -0.411,0.607 -0.612,0.913c-0.089,-0.073 -0.178,-0.145 -0.267,-0.216c-0.207,0.301 -0.411,0.606 -0.612,0.913c-0.088,-0.073 -0.178,-0.146 -0.267,-0.217c-0.207,0.302 -0.41,0.607 -0.612,0.913c-0.088,-0.073 -0.177,-0.145 -0.266,-0.216c-0.207,0.301 -0.411,0.606 -0.613,0.913c-0.088,-0.073 -0.177,-0.146 -0.266,-0.216c-0.207,0.301 -0.411,0.606 -0.612,0.912c-0.089,-0.073 -0.178,-0.145 -0.267,-0.216c-0.207,0.301 -0.411,0.606 -0.612,0.913c-0.089,-0.073 -0.178,-0.146 -0.267,-0.216c-0.207,0.301 -0.411,0.606 -0.612,0.912c-0.089,-0.073 -0.178,-0.145 -0.267,-0.216c-0.207,0.301 -0.411,0.606 -0.612,0.913c-0.089,-0.073 -0.178,-0.145 -0.267,-0.216l-0.313,0.463l14.613,-0l4.594,-3.642c0.29,-0.235 0.583,-0.467 0.879,-0.696c0.29,-0.236 0.583,-0.468 0.879,-0.697l9.667,-7.661c8.533,-6.921 19.404,-11.069 31.237,-11.069c27.4,-0 49.646,22.246 49.646,49.646c0,14.81 -6.499,28.114 -16.8,37.215c10.301,9.102 16.8,22.406 16.8,37.216c0,15.969 -7.556,30.187 -19.283,39.269l-9.667,7.662c-0.301,0.244 -0.604,0.484 -0.911,0.72c-0.28,0.228 -0.562,0.452 -0.847,0.673l-9.667,7.662c-8.535,6.924 -19.408,11.073 -31.242,11.073c-17.194,0 -32.358,-8.759 -41.27,-22.055c-7.771,4.81 -16.804,7.431 -26.127,7.431c-27.4,0 -49.646,-22.246 -49.646,-49.646c-0,-14.81 6.499,-28.115 16.8,-37.216c-10.301,-9.101 -16.8,-22.405 -16.8,-37.215c-0,-15.969 7.556,-30.187 19.283,-39.269l9.667,-7.662c0.301,-0.244 0.604,-0.484 0.911,-0.72Zm110.897,144.055c-0.577,0.041 -1.158,0.061 -1.744,0.061c-13.701,0 -24.824,-11.123 -24.824,-24.823c0,-2.558 0.388,-5.026 1.108,-7.349c0.202,-0.015 0.405,-0.026 0.609,-0.035l2.271,-0c13.175,0.594 23.688,11.477 23.688,24.797c-0,2.558 -0.388,5.026 -1.108,7.349Zm-82.169,-45.129l0,0.057l-0.879,0l0,0.697l-0.879,-0l0,0.696l-0.878,0l-0,0.697l-0.879,-0l-0,0.697l-0.879,-0l-0,0.696l-0.879,0l0,0.697l-0.879,-0l0,0.696l-0.879,0l0,0.697l-0.878,-0l-0,0.696l-0.879,0l-0,0.697l-0.879,-0l-0,0.696l-0.879,0l0,0.697l-0.879,-0l0,0.696l-0.142,0c-0.15,-1.101 -0.228,-2.226 -0.228,-3.369c0,-2.558 0.388,-5.026 1.108,-7.349c0.203,-0.015 0.406,-0.026 0.609,-0.036l2.263,0c2.695,0.123 5.333,0.683 7.815,1.642Zm19.346,-6.079l0.339,0.428l0.11,0.136l-1.24,0l0.314,-0.463c0.089,0.071 0.178,0.143 0.267,0.216l0.21,-0.317Zm62.823,-23.223c-0.203,0.015 -0.406,0.026 -0.609,0.035l-2.269,0c-13.174,-0.592 -23.69,-11.476 -23.69,-24.797c0,-2.558 0.388,-5.026 1.108,-7.349c0.577,-0.041 1.158,-0.061 1.745,-0.061c13.7,-0 24.823,11.123 24.823,24.823c-0,2.558 -0.388,5.026 -1.108,7.349Zm-82.169,-45.129l0,0.058l-0.879,-0l0,0.696l-0.879,0l0,0.697l-0.878,-0l-0,0.696l-0.879,0l-0,0.697l-0.879,-0l-0,0.696l-0.879,0l0,0.697l-0.879,-0l0,0.696l-0.879,0l0,0.697l-0.878,-0l-0,0.696l-0.879,0l-0,0.697l-0.879,-0l-0,0.696l-0.879,0l0,0.697l-0.879,0l0,0.697l-0.142,-0c-0.15,-1.102 -0.228,-2.227 -0.228,-3.37c0,-2.558 0.388,-5.027 1.108,-7.349c0.577,-0.041 1.158,-0.061 1.744,-0.061c3.086,-0 6.115,0.574 8.943,1.667Z"/><path d="M39.65,86.862c-10.301,-9.101 -16.8,-22.405 -16.8,-37.216c-0,-27.4 22.246,-49.646 49.646,-49.646c12.323,0 24.196,4.582 33.318,12.84c-6.972,4.631 -12.949,10.641 -17.543,17.641c-4.431,-3.648 -10.004,-5.658 -15.775,-5.658c-13.7,0 -24.823,11.123 -24.823,24.823c0,13.32 10.513,24.203 23.688,24.798c0.38,-0.009 0.757,-0.013 1.135,-0.013c0.377,-0 0.754,0.004 1.128,0.013c6.315,-0.287 12.288,-2.974 16.692,-7.516c-0.047,-0.882 -0.07,-1.767 -0.07,-2.657c-0,-1.132 0.038,-2.255 0.113,-3.367l-24.739,-0l-0,-22.515l31.907,0c8.73,-14.25 24.445,-23.765 42.365,-23.765c27.401,0 49.647,22.246 49.647,49.647c-0,14.81 -6.499,28.114 -16.8,37.215c10.301,9.101 16.8,22.405 16.8,37.215c-0,27.401 -22.246,49.647 -49.647,49.647c-17.193,-0 -32.358,-8.76 -41.269,-22.055c-7.771,4.809 -16.804,7.431 -26.127,7.431c-27.4,-0 -49.646,-22.246 -49.646,-49.647c-0,-14.81 6.499,-28.114 16.8,-37.215Zm101.378,27.042c13.175,0.594 23.688,11.478 23.688,24.797c-0,13.701 -11.123,24.824 -24.824,24.824c-13.7,-0 -24.823,-11.123 -24.823,-24.824c0,-13.319 10.513,-24.203 23.688,-24.797c0.376,0.009 0.755,0.013 1.135,0.013c0.379,0 0.756,-0.004 1.136,-0.013Zm-41.987,-21.428c2.298,3.319 4.989,6.345 8.005,9.01c-3.706,3.274 -6.922,7.094 -9.519,11.334l-31.907,-0l-0,22.515l24.739,-0c-0.075,1.112 -0.113,2.235 -0.113,3.366c-0,0.891 0.023,1.776 0.07,2.657c-4.665,4.812 -11.091,7.542 -17.82,7.542c-13.7,0 -24.823,-11.123 -24.823,-24.823c0,-13.319 10.513,-24.203 23.688,-24.797c0.38,0.009 0.757,0.013 1.135,0.013c0.377,-0 0.753,-0.004 1.128,-0.013c5.366,0.243 10.505,2.222 14.647,5.631c3.026,-4.611 6.653,-8.793 10.77,-12.435Zm41.987,-3.408c-0.38,-0.009 -0.757,-0.013 -1.136,-0.013c-0.378,-0 -0.755,0.004 -1.133,0.013c-13.175,-0.592 -23.69,-11.477 -23.69,-24.797c0,-13.701 11.123,-24.824 24.823,-24.824c13.701,0 24.824,11.123 24.824,24.824c-0,13.319 -10.513,24.202 -23.688,24.797Z" style="fill:url(#_Linear1);"/></g><defs><linearGradient id="_Linear1" x1="0" y1="0" x2="1" y2="0" gradientUnits="userSpaceOnUse" gradientTransform="matrix(27.5294,-152.852,172.713,31.1065,105.316,169.148)"><stop offset="0" style="stop-color:#1292b8;stop-opacity:1"/><stop offset="1" style="stop-color:#afdbc1;stop-opacity:1"/></linearGradient></defs></svg>