<?xml version="1.0" encoding="UTF-8" standalone="no"?><!DOCTYPE svg PUBLIC "-//W3C//DTD SVG 1.1//EN" "http://www.w3.org/Graphics/SVG/1.1/DTD/svg11.dtd"><svg width="100%" height="100%" viewBox="0 0 192 167" version="1.1" xmlns="http://www.w3.org/2000/svg" xmlns:xlink="http://www.w3.org/1999/xlink" xml:space="preserve" xmlns:serif="http://www.serif.com/" style="fill-rule:evenodd;clip-rule:evenodd;stroke-linejoin:round;stroke-miterlimit:2;"><rect id="gggm_logo_2" x="0" y="0" width="189.539" height="165.375" style="fill:none;"/><path d="M36.749,60.393c-1.451,-4.482 -2.235,-9.26 -2.235,-14.221c0,-25.483 20.689,-46.172 46.172,-46.172c11.689,-0 22.942,4.433 31.49,12.404l-15.745,16.884c-4.274,-3.985 -9.9,-6.202 -15.745,-6.202c-12.741,0 -23.086,10.345 -23.086,23.086c0,12.742 10.345,23.087 23.086,23.087c6.25,-0 12.218,-2.533 16.556,-6.997c-0.032,-0.835 -0.048,-1.665 -0.048,-2.489c0,-1.052 0.035,-2.096 0.105,-3.131l-23.008,0l0,-20.939l29.675,-0c8.119,-13.253 22.734,-22.102 39.4,-22.102c25.484,-0 46.173,20.689 46.173,46.172c-0,22.285 -15.822,40.904 -36.839,45.227c1.506,4.427 2.325,9.186 2.325,14.202c-0,25.484 -20.689,46.173 -46.173,46.173c-15.99,-0 -30.093,-8.147 -38.381,-20.512c-7.227,4.473 -15.628,6.911 -24.299,6.911c-25.483,-0 -46.172,-20.689 -46.172,-46.172c0,-22.255 15.779,-40.853 36.749,-45.209Zm78.485,36.618c0.529,0.209 1.071,0.397 1.627,0.564c0.142,0.042 0.282,0.086 0.418,0.13c2.063,0.81 3.982,1.909 5.706,3.246c0.231,0.194 0.464,0.392 0.701,0.596c0.184,0.158 0.371,0.311 0.561,0.457c4.72,4.228 7.692,10.369 7.692,17.198c-0,12.742 -10.345,23.087 -23.087,23.087c-12.741,-0 -23.086,-10.345 -23.086,-23.087c0,-12.741 10.345,-23.086 23.086,-23.086c2.214,0 4.355,0.312 6.382,0.895Zm-61.742,-13.531c-2.363,-0.657 -4.844,-0.965 -7.32,-0.965c-12.741,0 -23.086,10.345 -23.086,23.087c0,12.741 10.345,23.086 23.086,23.086c6.258,-0 12.234,-2.54 16.573,-7.014c-0.043,-0.82 -0.065,-1.643 -0.065,-2.472c0,-1.052 0.035,-2.096 0.105,-3.131l-23.008,0l0,-20.939l29.675,-0c0.764,-1.247 1.585,-2.455 2.461,-3.621c-3.402,-0.656 -6.673,-1.685 -9.766,-3.045c-2.96,-1.3 -5.758,-2.903 -8.354,-4.768c-0.101,-0.072 -0.201,-0.145 -0.301,-0.218Zm89.874,-46.793c12.742,0 23.087,10.345 23.087,23.086c-0,12.742 -10.345,23.086 -23.087,23.086c-12.741,0 -23.086,-10.344 -23.086,-23.086c0,-12.741 10.345,-23.086 23.086,-23.086Z"/></svg>