<svg xmlns="http://www.w3.org/2000/svg" width="417" height="271" viewBox="0 0 417 271" clip-rule="evenodd" fill-rule="evenodd" stroke-linejoin="round" stroke-miterlimit="2"><style>
@keyframes epa9dzwri3trn3tuaawtoy7t_do { 0% { stroke-dashoffset: 590.5px; animation-timing-function: cubic-bezier(0,0,.6,1); } 25% { stroke-dashoffset: 0px; } 50% { stroke-dashoffset: 0px; } 75% { stroke-dashoffset: 590.5px; animation-timing-function: cubic-bezier(.4,0,1,1); } 100% { stroke-dashoffset: 590.5px; } }
</style><path d="M416.7 57.6h-47.3l-128.5 212h47.2l128.6-212Z" fill="none" stroke="#000" stroke-width="5" stroke-dashoffset="590.5" stroke-dasharray="590.5" stroke-miterlimit="5" stroke-linejoin="miter" transform="translate(325.8,163.6) scale(1,.99982) translate(-328.8,-163.6)" style="animation: 4s linear infinite both epa9dzwri3trn3tuaawtoy7t_do;"/><path d="M59 101.1c-2.3-7.2-3.6-14.8-3.6-22.8c0-40.9 33.2-74.1 74.1-74.1c18.8 0 36.9 7.1 50.6 19.9l-25.3 27.1c-6.9-6.4-15.9-10-25.3-10c-20.4 0-37 16.6-37 37.1c0 20.4 16.6 37 37 37c10.1 0 19.6-4 26.6-11.2c0-1.3-0.1-2.7-0.1-4c0-1.7 .1-3.3 .2-5h-36.9v-33.6h47.6c13-21.3 36.5-35.5 63.2-35.5c41 0 74.2 33.2 74.2 74.1c0 35.8-25.4 65.7-59.2 72.6c2.4 7.1 3.8 14.8 3.8 22.8c0 40.9-33.2 74.1-74.2 74.1c-25.6 0-48.3-13-61.6-32.9c-11.6 7.2-25.1 11.1-39 11.1c-40.9 0-74.1-33.2-74.1-74.1c0-35.7 25.3-65.6 59-72.6Zm126 58.8c.8 .3 1.7 .6 2.6 .9c.2 .1 .5 .1 .7 .2c3.3 1.3 6.4 3.1 9.1 5.2c.4 .3 .8 .7 1.2 1c.2 .2 .6 .5 .9 .7c7.5 6.8 12.3 16.7 12.3 27.6c0 20.5-16.6 37.1-37.1 37.1c-20.4 0-37-16.6-37-37.1c0-20.4 16.6-37 37-37c3.6 0 7 .5 10.3 1.4Zm-99.1-21.7c-3.8-1.1-7.8-1.6-11.8-1.6c-20.4 0-37 16.6-37 37.1c0 20.4 16.6 37.1 37 37.1c10.1 0 19.7-4.1 26.6-11.3c0-1.3-0.1-2.6-0.1-4c0-1.7 .1-3.3 .2-5h-36.9v-33.6h47.6c1.2-2 2.5-4 3.9-5.8c-5.4-1.1-10.7-2.7-15.6-4.9c-4.8-2.1-9.3-4.7-13.4-7.7c-0.2-0.1-0.4-0.2-0.5-0.3Zm144.2-75.1c20.5 0 37.1 16.6 37.1 37c0 20.5-16.6 37.1-37.1 37.1c-20.4 0-37-16.6-37-37.1c0-20.4 16.6-37 37-37Z"/></svg>