<?xml  version="1.0" encoding="UTF-8" standalone="no"?><!DOCTYPE svg PUBLIC "-//W3C//DTD SVG 1.1//EN" "http://www.w3.org/Graphics/SVG/1.1/DTD/svg11.dtd"><svg width="100%" height="100%" viewBox="0 0 417 271" version="1.1" xmlns="http://www.w3.org/2000/svg" xmlns:xlink="http://www.w3.org/1999/xlink" xml:space="preserve" xmlns:serif="http://www.serif.com/" style="fill-rule:evenodd;clip-rule:evenodd;stroke-linejoin:round;stroke-miterlimit:2;"><path d="M416.667,57.569l-47.269,0l-128.529,212.075l47.269,0l128.529,-212.075Z"/><path d="M58.994,101.116c-2.33,-7.194 -3.588,-14.865 -3.588,-22.828c-0,-40.909 33.212,-74.121 74.121,-74.121c18.763,-0 36.828,7.116 50.55,19.912l-25.275,27.104c-6.861,-6.398 -15.894,-9.956 -25.275,-9.956c-20.455,0 -37.061,16.606 -37.061,37.061c0,20.454 16.606,37.06 37.061,37.06c10.031,0 19.613,-4.065 26.577,-11.232c-0.052,-1.341 -0.078,-2.673 -0.078,-3.995c0,-1.689 0.057,-3.366 0.169,-5.026l-36.935,-0l0,-33.614l47.637,-0c13.034,-21.275 36.496,-35.481 63.25,-35.481c40.909,0 74.121,33.213 74.121,74.121c0,35.775 -25.399,65.664 -59.137,72.603c2.417,7.107 3.732,14.746 3.732,22.799c-0,40.909 -33.213,74.121 -74.121,74.121c-25.67,0 -48.31,-13.077 -61.614,-32.927c-11.602,7.18 -25.088,11.094 -39.007,11.094c-40.909,-0 -74.121,-33.213 -74.121,-74.121c0,-35.726 25.33,-65.582 58.994,-72.574Zm125.992,58.784c0.849,0.335 1.72,0.637 2.612,0.904c0.228,0.069 0.452,0.138 0.671,0.209c3.312,1.301 6.392,3.064 9.16,5.212c0.371,0.31 0.745,0.629 1.125,0.956c0.295,0.254 0.596,0.499 0.901,0.734c7.576,6.787 12.347,16.645 12.347,27.608c0,20.454 -16.606,37.061 -37.06,37.061c-20.455,-0 -37.061,-16.607 -37.061,-37.061c0,-20.454 16.606,-37.06 37.061,-37.06c3.553,-0 6.989,0.501 10.244,1.437Zm-99.116,-21.722c-3.793,-1.056 -7.775,-1.549 -11.749,-1.549c-20.454,0 -37.061,16.606 -37.061,37.061c0,20.454 16.607,37.06 37.061,37.06c10.045,0 19.639,-4.076 26.604,-11.26c-0.069,-1.316 -0.104,-2.637 -0.104,-3.967c-0,-1.689 0.056,-3.366 0.168,-5.026l-36.934,-0l-0,-33.614l47.636,-0c1.227,-2.002 2.545,-3.942 3.951,-5.813c-5.461,-1.053 -10.711,-2.706 -15.676,-4.888c-4.752,-2.088 -9.244,-4.66 -13.412,-7.654c-0.161,-0.116 -0.322,-0.232 -0.484,-0.35Zm144.277,-75.117c20.455,-0 37.061,16.606 37.061,37.06c-0,20.454 -16.606,37.061 -37.061,37.061c-20.454,-0 -37.06,-16.607 -37.06,-37.061c-0,-20.454 16.606,-37.06 37.06,-37.06Z"/></svg>