<svg xmlns="http://www.w3.org/2000/svg" version="1.1" viewBox="-5.0 -10.0 110.0 135.0">
 <path d="m86.77 38.406c-8.1758-17.262-24.621-28.062-40-26.258-0.36719 0.050781-0.72266-0.13672-0.89062-0.46484-1.0977-2.3281-3.6797-3.5664-6.1836-2.9648l-1.1875-2.3398c-1.0195-1.9648-3.4219-2.7539-5.4062-1.7734-1.4922 0.73828-2.3672 2.3281-2.1914 3.9844-32.008 13.578-20.684 43.809-20.562 44.113 0.21094 0.54297 0.74219 0.89453 1.3242 0.88281 0.58203-0.011719 1.0938-0.38672 1.2852-0.9375 0.67969-1.9883 3.4492-3.6562 6.6523-5.5859 0.41797-0.25 0.85156-0.51562 1.2891-0.78125v0.003906c0.14062 7.2695 1.8398 14.422 4.9844 20.977 8.4336 17.816 25.918 28.766 41.59 26.02 1.0117-0.22266 2.0703 0.027344 2.8672 0.6875 1.582 1.6797 4.0156 2.2539 6.1758 1.4492 2.0039-1.1523 3.1016-3.4062 2.7734-5.6953 0.011719-1.0391 0.48438-2.0195 1.2969-2.6719 12.039-10.367 14.637-30.828 6.1836-48.645zm-52.426-31.316c0.29297-0.15625 0.64062-0.1875 0.95703-0.085938 0.31641 0.10156 0.57812 0.32812 0.72266 0.625l1.1055 2.1719-2.2578 1.0703-1.0742-2.1055c-0.15234-0.29297-0.17969-0.63672-0.078125-0.95312 0.10547-0.3125 0.32812-0.57422 0.625-0.72266zm-16.168 37.594c-2.1953 1.1836-4.2383 2.6328-6.082 4.3125-1.8477-7.0898-4.3984-26.219 17.617-36.836-2.8984 6.0391-9.043 18.398-12.223 21.578-0.53125 0.54688-0.52734 1.4141 0.011719 1.9531 0.53906 0.53906 1.4062 0.54297 1.9531 0.011719 3.4297-3.4297 9.5586-15.672 12.586-21.965 3.0273 17.754-1.0039 23.211-13.863 30.945zm60.59 40.27c-1.4531 1.207-2.2812 3.0039-2.25 4.8906 0.21875 1.1641-0.24219 2.3516-1.1914 3.0664-1.1523 0.28125-2.3711-0.11328-3.1406-1.0195-1.4336-1.2266-3.3516-1.7227-5.1992-1.3438-14.445 2.5352-30.68-7.7656-38.59-24.477v0.003907c-3.2383-6.7227-4.8477-14.113-4.6953-21.574 9.5703-6.4141 13.984-13.309 11.207-30.566l4.9102-2.332c0.64453-0.30469 1.3906-0.33984 2.0625-0.09375 0.67188 0.24609 1.2148 0.75 1.5078 1.4023 0.6875 1.3828 2.1719 2.1836 3.707 1.9961 14.211-1.6641 29.496 8.4883 37.168 24.688 7.9258 16.715 5.6211 35.785-5.4961 45.359z"/>
</svg>