<svg xmlns="http://www.w3.org/2000/svg" xmlns:xlink="http://www.w3.org/1999/xlink" version="1.1" x="0px" y="0px" viewBox="0 0 74 92.5" enable-background="new 0 0 74 74" xml:space="preserve"><g><path d="M39,21h5c2.415,0,4.435-1.721,4.899-4H68c0.553,0,1-0.447,1-1v-4c0-0.553-0.447-1-1-1H48.899C48.435,8.721,46.415,7,44,7   h-5.184C38.402,5.839,37.302,5,36,5c-0.771,0-1.468,0.301-2,0.78C33.468,5.301,32.771,5,32,5s-1.468,0.301-2,0.78   C29.468,5.301,28.771,5,28,5c-1.654,0-3,1.346-3,3v30c0,0.552-0.448,1-1,1h-2c-1.654,0-3,1.346-3,3c0,0.395,0.081,0.77,0.22,1.116   C17.945,43.461,17,44.617,17,46c0,0.395,0.081,0.77,0.22,1.116C15.945,47.461,15,48.617,15,50c0,0.395,0.081,0.77,0.22,1.116   C13.945,51.461,13,52.617,13,54c0,0.395,0.081,0.77,0.22,1.116C11.945,55.461,11,56.617,11,58c0,0.352,0.072,0.686,0.184,1H6   c-0.553,0-1,0.447-1,1v2c0,3.859,3.141,7,7,7h50c3.859,0,7-3.141,7-7v-2c0-0.553-0.447-1-1-1h-5.184C62.928,58.686,63,58.352,63,58   c0-1.383-0.945-2.539-2.22-2.884C60.919,54.77,61,54.395,61,54c0-1.383-0.945-2.539-2.22-2.884C58.919,50.77,59,50.395,59,50   c0-1.383-0.945-2.539-2.22-2.884C56.919,46.77,57,46.395,57,46c0-1.383-0.945-2.539-2.22-2.884C54.919,42.77,55,42.395,55,42   c0-1.654-1.346-3-3-3H38.965C38.987,38.666,39,38.332,39,38V21z M47,12c0,0.553,0.447,1,1,1h19v2H48c-0.553,0-1,0.447-1,1   c0,1.654-1.346,3-3,3h-5v-2h4v-2h-4v-2h4v-2h-4V9h5C45.654,9,47,10.346,47,12z M36,7c0.552,0,1,0.448,1,1v21h-2V8   C35,7.448,35.448,7,36,7z M33,38c0,0.303-0.015,0.607-0.046,0.908c-0.003,0.031-0.01,0.061-0.014,0.092h-2.025   C30.963,38.67,31,38.338,31,38V25h2V38z M32,7c0.552,0,1,0.448,1,1v15h-2V8C31,7.448,31.448,7,32,7z M27,8c0-0.552,0.448-1,1-1   s1,0.448,1,1v19h-2V8z M27,38v-9h2v9c0,0.34-0.044,0.672-0.111,1h-2.073C26.928,38.686,27,38.352,27,38z M20,45h14   c0.552,0,1,0.448,1,1v1H20c-0.552,0-1-0.448-1-1S19.448,45,20,45z M67,62c0,2.757-2.243,5-5,5H12c-2.757,0-5-2.243-5-5v-1h60V62z    M58,55h-7v2h9c0.552,0,1,0.448,1,1s-0.448,1-1,1H14c-0.552,0-1-0.448-1-1s0.448-1,1-1h23v-2H16c-0.552,0-1-0.448-1-1s0.448-1,1-1   h17v-2H18c-0.552,0-1-0.448-1-1s0.448-1,1-1h17v1c0,1.654,1.346,3,3,3s3-1.346,3-3c0-0.552,0.448-1,1-1s1,0.448,1,1v4   c0,1.654,1.346,3,3,3s3-1.346,3-3v-1h9c0.552,0,1,0.448,1,1S58.552,55,58,55z M56,51h-7v-2h7c0.552,0,1,0.448,1,1S56.552,51,56,51z    M54,47h-5v-1c0-0.552,0.448-1,1-1h4c0.552,0,1,0.448,1,1S54.552,47,54,47z M53,42c0,0.552-0.448,1-1,1h-2c-1.654,0-3,1.346-3,3v8   c0,0.552-0.448,1-1,1s-1-0.448-1-1v-4c0-1.654-1.346-3-3-3s-3,1.346-3,3c0,0.552-0.448,1-1,1s-1-0.448-1-1v-4c0-1.654-1.346-3-3-3   H22c-0.552,0-1-0.448-1-1s0.448-1,1-1h30C52.552,41,53,41.448,53,42z M34.95,39c0.03-0.333,0.05-0.666,0.05-1v-7h2v7   c0,0.332-0.015,0.666-0.04,1H34.95z"/><rect x="39" y="55" width="2" height="2" /></g></svg>